<svg width="10" height="17" viewBox="0 0 10 17" fill="white" xmlns="http://www.w3.org/2000/svg">
<path fill-rule="evenodd" clip-rule="evenodd" d="M6.79401 8.74805L0.810974 2.76807C0.705906 2.66353 0.622566 2.5392 0.565674 2.40234C0.508782 2.26548 0.479492 2.11892 0.479492 1.9707C0.479492 1.82249 0.508782 1.67544 0.565674 1.53857C0.622566 1.40171 0.705906 1.27739 0.810974 1.17285C1.02425 0.962768 1.31165 0.845215 1.61102 0.845215C1.91039 0.845215 2.19773 0.962768 2.41101 1.17285L9.19098 7.94678C9.61898 8.37578 9.62802 9.06288 9.22302 9.50488L2.41602 16.3271C2.31089 16.432 2.1861 16.5152 2.04883 16.5718C1.91156 16.6284 1.76452 16.6575 1.61603 16.6572C1.39221 16.659 1.17288 16.5937 0.986206 16.4702C0.79953 16.3467 0.65395 16.1706 0.568054 15.9639C0.482158 15.7572 0.459862 15.5295 0.504028 15.3101C0.548194 15.0906 0.656807 14.8893 0.815979 14.7319L6.79401 8.74805Z" fill="#6667AB"/>
</svg>
