<svg width="14" height="14" viewBox="0 0 14 14" fill="none" xmlns="http://www.w3.org/2000/svg">
<path fill-rule="evenodd" clip-rule="evenodd" d="M6.20996 3.608C6.20996 3.44357 6.27528 3.28587 6.39155 3.1696C6.50783 3.05333 6.66553 2.988 6.82996 2.988C6.91138 2.988 6.992 3.00404 7.06722 3.0352C7.14245 3.06636 7.21079 3.11203 7.26837 3.1696C7.32594 3.22717 7.37161 3.29552 7.40277 3.37074C7.43392 3.44596 7.44996 3.52659 7.44996 3.608V6.795L9.65696 8.264C9.72545 8.30894 9.78399 8.36745 9.82897 8.4359C9.87394 8.50436 9.9044 8.58132 9.91846 8.66201C9.93252 8.74271 9.92988 8.82543 9.9107 8.90507C9.89152 8.9847 9.85622 9.05956 9.80696 9.125C9.7649 9.19353 9.70882 9.25238 9.64241 9.29769C9.57599 9.34301 9.50074 9.37375 9.4216 9.38792C9.34245 9.40209 9.26121 9.39935 9.1832 9.37989C9.10519 9.36043 9.03218 9.32468 8.96896 9.275L6.48596 7.61901C6.31296 7.52501 6.20996 7.33201 6.20996 7.10201V3.608ZM6.82996 0.505005C8.58569 0.505005 10.2695 1.20247 11.511 2.44396C12.7525 3.68545 13.45 5.36927 13.45 7.125C13.45 8.88074 12.7525 10.5646 11.511 11.8061C10.2695 13.0475 8.58569 13.745 6.82996 13.745C5.07423 13.745 3.3904 13.0475 2.14891 11.8061C0.907423 10.5646 0.209961 8.88074 0.209961 7.125C0.209961 5.36927 0.907423 3.68545 2.14891 2.44396C3.3904 1.20247 5.07423 0.505005 6.82996 0.505005ZM1.45096 7.125C1.45083 7.83151 1.5899 8.53111 1.86024 9.18385C2.13058 9.83658 2.52688 10.4297 3.02649 10.9292C3.52611 11.4287 4.11926 11.8249 4.77204 12.0951C5.42483 12.3653 6.12446 12.5043 6.83096 12.504C7.53721 12.5039 8.23652 12.3646 8.88896 12.0942C9.5414 11.8239 10.1342 11.4276 10.6335 10.9281C11.1328 10.4286 11.5288 9.83569 11.799 9.18315C12.0691 8.53061 12.2081 7.83125 12.208 7.125C12.2081 6.41867 12.0691 5.71923 11.7989 5.06663C11.5287 4.41402 11.1325 3.82104 10.6331 3.32154C10.1337 2.82204 9.54082 2.42581 8.88826 2.15548C8.23571 1.88514 7.53629 1.746 6.82996 1.746C6.12354 1.74587 5.42402 1.88492 4.77135 2.15519C4.11868 2.42546 3.52565 2.82167 3.02614 3.32118C2.52663 3.8207 2.13042 4.41373 1.86015 5.0664C1.58987 5.71906 1.45083 6.41859 1.45096 7.125Z" fill="#878A99"/>
</svg>
