<svg width="22" height="21" viewBox="0 0 22 21" fill="none" xmlns="http://www.w3.org/2000/svg">
<path fill-rule="evenodd" clip-rule="evenodd" d="M5.36279 0.0699463H1.83081C1.21781 0.0699463 0.720703 0.567947 0.720703 1.17995V4.71295C0.720703 5.32495 1.21781 5.82295 1.83081 5.82295H5.36279C5.97479 5.82295 6.47278 5.32495 6.47278 4.71295V1.17995C6.47278 0.567947 5.97479 0.0699463 5.36279 0.0699463Z" fill="white"/>
<path fill-rule="evenodd" clip-rule="evenodd" d="M12.9169 0.0699463H9.38391C8.77191 0.0699463 8.27393 0.567947 8.27393 1.17995V4.71295C8.27393 5.32495 8.77191 5.82295 9.38391 5.82295H12.9169C13.5289 5.82295 14.0269 5.32495 14.0269 4.71295V1.17995C14.0269 0.567947 13.5289 0.0699463 12.9169 0.0699463Z" fill="white"/>
<path fill-rule="evenodd" clip-rule="evenodd" d="M5.36279 7.6239H1.83081C1.21781 7.6239 0.720703 8.1219 0.720703 8.7339V12.2659C0.720703 12.8789 1.21781 13.3759 1.83081 13.3759H5.36279C5.97479 13.3759 6.47278 12.8789 6.47278 12.2659V8.7339C6.47278 8.1219 5.97479 7.6239 5.36279 7.6239Z" fill="white"/>
<path fill-rule="evenodd" clip-rule="evenodd" d="M12.9169 7.6239H9.38391C8.77191 7.6239 8.27393 8.1219 8.27393 8.7339V12.2659C8.27393 12.8789 8.77191 13.3759 9.38391 13.3759H12.9169C13.5289 13.3759 14.0269 12.8789 14.0269 12.2659V8.7339C14.0269 8.1219 13.5289 7.6239 12.9169 7.6239Z" fill="white"/>
<path fill-rule="evenodd" clip-rule="evenodd" d="M20.4696 0.0699463H16.9376C16.3256 0.0699463 15.8276 0.567947 15.8276 1.17995V4.71295C15.8276 5.32495 16.3256 5.82295 16.9376 5.82295H20.4706C21.0826 5.82295 21.5807 5.32495 21.5807 4.71295V1.17995C21.5807 0.567947 21.0816 0.0699463 20.4696 0.0699463Z" fill="white"/>
<path fill-rule="evenodd" clip-rule="evenodd" d="M20.4696 7.6239H16.9376C16.3256 7.6239 15.8276 8.1219 15.8276 8.7339V12.2659C15.8276 12.8789 16.3256 13.3759 16.9376 13.3759H20.4706C21.0826 13.3759 21.5807 12.8789 21.5807 12.2659V8.7339C21.5807 8.1219 21.0816 7.6239 20.4696 7.6239Z" fill="white"/>
<path fill-rule="evenodd" clip-rule="evenodd" d="M5.36279 15.177H1.83081C1.21781 15.177 0.720703 15.675 0.720703 16.287V19.82C0.720703 20.432 1.21781 20.93 1.83081 20.93H5.36279C5.97479 20.93 6.47278 20.432 6.47278 19.82V16.287C6.47278 15.675 5.97479 15.177 5.36279 15.177Z" fill="white"/>
<path fill-rule="evenodd" clip-rule="evenodd" d="M12.9169 15.177H9.38391C8.77191 15.177 8.27393 15.675 8.27393 16.287V19.82C8.27393 20.432 8.77191 20.93 9.38391 20.93H12.9169C13.5289 20.93 14.0269 20.432 14.0269 19.82V16.287C14.0269 15.675 13.5289 15.177 12.9169 15.177Z" fill="white"/>
<path fill-rule="evenodd" clip-rule="evenodd" d="M20.4696 15.177H16.9376C16.3256 15.177 15.8276 15.675 15.8276 16.287V19.82C15.8276 20.432 16.3256 20.93 16.9376 20.93H20.4706C21.0826 20.93 21.5807 20.432 21.5807 19.82V16.287C21.5807 15.675 21.0816 15.177 20.4696 15.177Z" fill="white"/>
</svg>
