<svg width="26" height="26" viewBox="0 0 26 26" fill="none" xmlns="http://www.w3.org/2000/svg">
<mask id="mask0_17_158" style="mask-type:luminance" maskUnits="userSpaceOnUse" x="0" y="0" width="27" height="26">
<path d="M0.000244141 0H26.0002V26H0.000244141V0Z" fill="white"/>
</mask>
<g mask="url(#mask0_17_158)">
<path fill-rule="evenodd" clip-rule="evenodd" d="M17.4749 21.8941C15.7649 22.6641 14.283 22.9201 12.259 22.9201C7.52703 22.9201 3.36401 19.5281 3.36401 13.9401C3.36401 8.12506 7.58412 3.08008 14.0261 3.08008C19.0431 3.08008 22.636 6.52905 22.636 11.3181C22.636 15.4801 20.298 18.1021 17.219 18.1021C15.879 18.1021 14.9098 17.4181 14.7668 15.9071H14.7102C13.8272 17.3611 12.544 18.1021 11.033 18.1021C9.17996 18.1021 7.84009 16.7341 7.84009 14.3961C7.84009 10.9191 10.406 7.75406 14.51 7.75406C15.765 7.75406 17.1901 8.06807 17.9031 8.46707L17.0481 13.7411C16.7631 15.4221 16.963 16.1921 17.761 16.2211C18.987 16.2491 20.5261 14.6811 20.5261 11.4031C20.5261 7.69708 18.1312 4.81805 13.7122 4.81805C9.35216 4.81805 5.53101 8.23808 5.53101 13.6841C5.53101 18.4441 8.58086 21.1521 12.8289 21.1521C14.2829 21.1521 15.8222 20.8391 16.9622 20.2401L17.4749 21.8941ZM14.9382 10.1211C14.6496 10.0457 14.3523 10.0074 14.054 10.0071C12.174 10.0071 10.6902 11.8601 10.6902 14.0541C10.6902 15.1381 11.175 15.8221 12.116 15.8221C13.171 15.8221 14.2833 14.4821 14.5393 12.8291L14.9382 10.1211Z" fill="#299CDB"/>
</g>
</svg>
