<svg width="19" height="19" viewBox="0 0 19 19" fill="none" xmlns="http://www.w3.org/2000/svg">
<mask id="mask0_17_65" style="mask-type:luminance" maskUnits="userSpaceOnUse" x="0" y="0" width="19" height="19">
<path d="M0 0H19V19H0V0Z" fill="white"/>
</mask>
<g mask="url(#mask0_17_65)">
<path fill-rule="evenodd" clip-rule="evenodd" d="M18.9768 10.119L17.5398 1.97197C17.4795 1.62893 17.3003 1.31809 17.0337 1.09392C16.7671 0.869754 16.4301 0.746573 16.0818 0.745972C15.9968 0.746972 3.49982 2.94197 3.49982 2.94197C3.30756 2.97564 3.12385 3.04695 2.95923 3.15181C2.79461 3.25667 2.65232 3.39302 2.54054 3.55303C2.42876 3.71303 2.34969 3.89354 2.30786 4.08419C2.26604 4.27484 2.26228 4.47187 2.29682 4.66397L2.43582 5.44997H13.7098C14.3975 5.45077 15.0569 5.72432 15.5432 6.21061C16.0295 6.69691 16.303 7.35624 16.3038 8.04397V12.1L17.7708 11.841C17.9633 11.8075 18.1472 11.7364 18.312 11.6316C18.4769 11.5269 18.6194 11.3906 18.7314 11.2305C18.8434 11.0705 18.9226 10.8899 18.9646 10.6992C19.0065 10.5084 19.0113 10.3112 18.9768 10.119Z" fill="#D9D9FB"/>
<path fill-rule="evenodd" clip-rule="evenodd" d="M15.196 12.714H0V16.106C0 16.924 0.664 17.588 1.482 17.588H13.714C14.533 17.588 15.196 16.924 15.196 16.106V12.714ZM4.414 16.256H1.892C1.74454 16.256 1.60312 16.1974 1.49885 16.0931C1.39458 15.9889 1.336 15.8475 1.336 15.7C1.336 15.5525 1.39458 15.4111 1.49885 15.3068C1.60312 15.2026 1.74454 15.144 1.892 15.144H4.414C4.56146 15.144 4.70288 15.2026 4.80715 15.3068C4.91142 15.4111 4.97 15.5525 4.97 15.7C4.97 15.8475 4.91142 15.9889 4.80715 16.0931C4.70288 16.1974 4.56146 16.256 4.414 16.256Z" fill="#D9D9FB"/>
<path fill-rule="evenodd" clip-rule="evenodd" d="M0.00195312 7.96701H15.194C15.1755 7.58691 15.0115 7.2285 14.736 6.96601C14.4604 6.70352 14.0945 6.55707 13.714 6.55701H1.48195C0.691953 6.55701 0.0399531 7.17701 0.00195312 7.96701Z" fill="#D9D9FB"/>
<path fill-rule="evenodd" clip-rule="evenodd" d="M0 9.07996H15.196V11.602H0V9.07996Z" fill="#D9D9FB"/>
</g>
</svg>
