<svg width="16" height="16" viewBox="0 0 16 16" fill="none" xmlns="http://www.w3.org/2000/svg">
<mask id="mask0_17_564" style="mask-type:luminance" maskUnits="userSpaceOnUse" x="0" y="0" width="16" height="16">
<path d="M0 0H16V16H0V0Z" fill="white"/>
</mask>
<g mask="url(#mask0_17_564)">
<path fill-rule="evenodd" clip-rule="evenodd" d="M5.22498 0.552996L5 1H2C1.73478 1 1.48038 1.10537 1.29285 1.29291C1.10531 1.48045 1 1.73479 1 2C1 2.26522 1.10531 2.51956 1.29285 2.70709C1.48038 2.89463 1.73478 3 2 3H14C14.2652 3 14.5196 2.89463 14.7072 2.70709C14.8947 2.51956 15 2.26522 15 2C15 1.73479 14.8947 1.48045 14.7072 1.29291C14.5196 1.10537 14.2652 1 14 1H11L10.775 0.552996C10.6924 0.386622 10.5648 0.246679 10.4069 0.148958C10.2489 0.0512375 10.0667 -0.000360176 9.88098 1.89248e-06H6.11902C5.93326 -0.000360176 5.75112 0.0512375 5.59314 0.148958C5.43516 0.246679 5.3076 0.386622 5.22498 0.552996ZM14 4H2L2.66296 14.594C2.71296 15.384 3.36906 16 4.15906 16H11.8409C12.6309 16 13.287 15.384 13.337 14.594L14 4Z" fill="#D26175"/>
</g>
</svg>
