<svg xmlns="http://www.w3.org/2000/svg" width="11.574" height="8.712" viewBox="0 0 11.574 8.712">
  <g id="list_2_" data-name="list (2)" transform="translate(0 -7.434)">
    <path id="Path_35202" data-name="Path 35202" d="M22.237,47.048H14.5a.578.578,0,0,1,0-1.155h7.739a.578.578,0,0,1,0,1.155Z" transform="translate(-11.24 -31.055)" fill="#d9dce8"/>
    <path id="Path_35203" data-name="Path 35203" d="M22.237,28.217H14.5a.578.578,0,1,1,0-1.155h7.739a.578.578,0,0,1,0,1.155Z" transform="translate(-11.24 -15.849)" fill="#d9dce8"/>
    <path id="Path_35204" data-name="Path 35204" d="M22.237,9.386H14.5a.578.578,0,1,1,0-1.155h7.739a.578.578,0,0,1,0,1.155Z" transform="translate(-11.24 -0.644)" fill="#d9dce8"/>
    <circle id="Ellipse_238" data-name="Ellipse 238" cx="0.776" cy="0.776" r="0.776" transform="translate(0 7.434)" fill="#d9dce8"/>
    <circle id="Ellipse_239" data-name="Ellipse 239" cx="0.776" cy="0.776" r="0.776" transform="translate(0 11.014)" fill="#d9dce8"/>
    <circle id="Ellipse_240" data-name="Ellipse 240" cx="0.776" cy="0.776" r="0.776" transform="translate(0 14.595)" fill="#d9dce8"/>
  </g>
</svg>
