<svg width="16" height="16" viewBox="0 0 16 16" fill="none" xmlns="http://www.w3.org/2000/svg">
<path fill-rule="evenodd" clip-rule="evenodd" d="M14.89 0.517975C14.7259 0.353731 14.531 0.223433 14.3165 0.134537C14.102 0.0456407 13.8722 -0.00012207 13.64 -0.00012207C13.4078 -0.00012207 13.178 0.0456407 12.9635 0.134537C12.749 0.223433 12.5541 0.353731 12.39 0.517975L11.4399 1.46497L14.531 4.55698L15.481 3.60696C15.6455 3.44283 15.776 3.24784 15.8651 3.03317C15.9542 2.81851 16.0001 2.58837 16.0001 2.35596C16.0001 2.12354 15.9542 1.89344 15.8651 1.67877C15.776 1.46411 15.6455 1.26912 15.481 1.10498L14.89 0.517975ZM5.44397 7.46497C5.25097 7.65697 5.10297 7.89498 5.01697 8.15598L4.08301 10.96C4.03868 11.0937 4.03227 11.2372 4.06458 11.3744C4.09688 11.5115 4.16662 11.637 4.26599 11.737C4.36527 11.8373 4.49077 11.9077 4.62817 11.9401C4.76558 11.9724 4.90933 11.9655 5.04297 11.92L7.84595 10.985C8.10595 10.897 8.34196 10.752 8.53796 10.559L13.821 5.27298L10.726 2.17896L5.44397 7.46497ZM3.03101 1.85397C2.22722 1.85424 1.45643 2.17367 0.888062 2.74203C0.319696 3.3104 0.000265059 4.08119 0 4.88498V12.968C-4.37265e-08 13.7719 0.319301 14.543 0.887695 15.1116C1.45609 15.6802 2.22704 15.9997 3.03101 16H11.115C11.9188 15.9994 12.6895 15.6798 13.2577 15.1112C13.8259 14.5427 14.145 13.7717 14.145 12.968V9.93796C14.145 9.67009 14.0385 9.4132 13.8491 9.22379C13.6597 9.03437 13.4029 8.92798 13.135 8.92798C12.8671 8.92798 12.6102 9.03437 12.4208 9.22379C12.2314 9.4132 12.125 9.67009 12.125 9.93796V12.968C12.125 13.2358 12.0186 13.4927 11.8292 13.6822C11.6398 13.8716 11.3829 13.978 11.115 13.978H3.03101C2.76314 13.978 2.50618 13.8716 2.31677 13.6822C2.12736 13.4927 2.021 13.2358 2.021 12.968V4.88498C2.021 4.32598 2.47201 3.87497 3.03101 3.87497H6.06201C6.19471 3.87497 6.32613 3.84882 6.44873 3.79803C6.57133 3.74725 6.68266 3.67284 6.77649 3.57901C6.87032 3.48518 6.94482 3.37376 6.99561 3.25116C7.04639 3.12856 7.07251 2.99717 7.07251 2.86447C7.07251 2.73177 7.04639 2.60035 6.99561 2.47775C6.94482 2.35515 6.87032 2.24377 6.77649 2.14993C6.68266 2.0561 6.57133 1.98166 6.44873 1.93088C6.32613 1.8801 6.19471 1.85397 6.06201 1.85397H3.03101Z" fill="#0AB39C"/>
</svg>
