<svg width="20" height="20" viewBox="0 0 20 20" fill="none" xmlns="http://www.w3.org/2000/svg">
<mask id="mask0_17_115" style="mask-type:luminance" maskUnits="userSpaceOnUse" x="0" y="0" width="20" height="20">
<path d="M0 0H20V20H0V0Z" fill="white"/>
</mask>
<g mask="url(#mask0_17_115)">
<path fill-rule="evenodd" clip-rule="evenodd" d="M4.83299 3.74999C4.83299 2.59999 5.76699 1.66699 6.91699 1.66699H12.125V5.83299C12.1247 5.9699 12.1515 6.10552 12.2038 6.23206C12.256 6.3586 12.3328 6.47357 12.4296 6.57038C12.5264 6.6672 12.6414 6.74394 12.7679 6.79621C12.8945 6.84848 13.0301 6.87526 13.167 6.87499H17.333V16.25C17.333 17.4 16.399 18.333 15.25 18.333H6.91699C6.36454 18.3327 5.83477 18.1132 5.44403 17.7227C5.05329 17.3321 4.83352 16.8024 4.83299 16.25V12.604H10.501L9.23099 13.874C9.0918 14.0218 9.01565 14.2181 9.01871 14.4211C9.02177 14.6242 9.10378 14.818 9.24737 14.9616C9.39096 15.1052 9.58482 15.1872 9.78786 15.1903C9.9909 15.1933 10.1871 15.1172 10.335 14.978L12.939 12.373C13.0116 12.3007 13.0693 12.2148 13.1086 12.1201C13.148 12.0255 13.1682 11.924 13.1682 11.8215C13.1682 11.719 13.148 11.6175 13.1086 11.5229C13.0693 11.4282 13.0116 11.3423 12.939 11.27L10.335 8.66499C10.1871 8.5258 9.9909 8.44965 9.78786 8.45271C9.58482 8.45577 9.39096 8.53778 9.24737 8.68137C9.10378 8.82496 9.02177 9.01882 9.01871 9.22186C9.01565 9.4249 9.0918 9.62115 9.23099 9.76899L10.501 11.039H4.83299V3.74899V3.74999ZM4.83299 11.042V12.604H1.44799C1.34539 12.6041 1.24378 12.584 1.14896 12.5448C1.05415 12.5056 0.967998 12.4481 0.895449 12.3755C0.822901 12.303 0.765377 12.2168 0.726175 12.122C0.686973 12.0272 0.666861 11.9256 0.666993 11.823C0.666861 11.7205 0.68694 11.6189 0.72608 11.5242C0.765219 11.4294 0.822653 11.3433 0.895096 11.2708C0.967538 11.1983 1.05357 11.1407 1.14827 11.1015C1.24297 11.0622 1.34448 11.042 1.44699 11.042H4.83299ZM17.333 5.83299H13.167V1.66699L17.333 5.83299Z" fill="#299CDB"/>
</g>
</svg>
