<svg width="16" height="16" viewBox="0 0 16 16" fill="none" xmlns="http://www.w3.org/2000/svg">
<mask id="mask0_17_574" style="mask-type:luminance" maskUnits="userSpaceOnUse" x="0" y="0" width="16" height="16">
<path d="M0 0H16V16H0V0Z" fill="white"/>
</mask>
<g mask="url(#mask0_17_574)">
<path fill-rule="evenodd" clip-rule="evenodd" d="M0.889005 4.20502C0.618558 4.04934 0.393968 3.82511 0.237882 3.5549C0.0817961 3.28469 -0.000300139 2.97807 -3.31901e-05 2.66602C-3.31901e-05 1.68602 0.796921 0.889038 1.77792 0.889038C2.43592 0.889038 3.01098 1.24705 3.31698 1.77805H12.683C12.8798 1.441 13.1821 1.17799 13.5431 1.02954C13.904 0.881091 14.3037 0.855421 14.6808 0.956467C15.0578 1.05751 15.3911 1.27969 15.6295 1.58878C15.8678 1.89786 15.998 2.27671 16 2.66702C16 3.32502 15.6419 3.90002 15.1109 4.20502V11.795C15.3476 11.9311 15.5498 12.1199 15.7017 12.3467C15.8537 12.5735 15.9514 12.8323 15.9873 13.1029C16.0231 13.3736 15.9962 13.6489 15.9085 13.9074C15.8209 14.166 15.6748 14.4009 15.4817 14.5939C15.2886 14.7869 15.0536 14.9329 14.795 15.0204C14.5364 15.108 14.2612 15.1349 13.9906 15.0989C13.7199 15.0629 13.4611 14.9651 13.2343 14.8131C13.0076 14.661 12.8189 14.4588 12.683 14.222H3.31698C3.18082 14.4585 2.992 14.6605 2.76523 14.8123C2.53845 14.9642 2.27979 15.0618 2.00924 15.0976C1.73869 15.1334 1.46349 15.1064 1.20504 15.0187C0.946596 14.9311 0.711861 14.7851 0.518888 14.5921C0.325914 14.3992 0.179896 14.1644 0.092252 13.9059C0.00460783 13.6475 -0.0223913 13.3723 0.0133945 13.1017C0.0491804 12.8312 0.146848 12.5725 0.298673 12.3458C0.450498 12.119 0.652496 11.9302 0.889005 11.794V4.20502ZM12.683 3.55502H3.31698C3.16098 3.82502 2.93696 4.05002 2.66696 4.20502V11.795C2.93696 11.95 3.16098 12.175 3.31698 12.445H12.683C12.839 12.175 13.063 11.95 13.333 11.795V4.20502C13.0631 4.04904 12.8389 3.82489 12.683 3.55502ZM3.556 5.33304C3.556 4.84104 3.95294 4.44403 4.44394 4.44403H7.99997C8.49197 4.44403 8.889 4.84105 8.889 5.33405V8.00003C8.88914 8.11681 8.86625 8.23248 8.82162 8.34039C8.77699 8.44831 8.71145 8.54636 8.62887 8.62894C8.5463 8.71151 8.44822 8.77699 8.3403 8.82162C8.23238 8.86625 8.11675 8.88917 7.99997 8.88904H4.44394C4.32715 8.88904 4.21159 8.86601 4.10373 8.82126C3.99586 8.77651 3.89788 8.71091 3.8154 8.62823C3.73291 8.54556 3.66752 8.44745 3.62301 8.33948C3.57851 8.23151 3.55573 8.11581 3.556 7.99902V5.33304ZM7.11093 9.77805H7.99997C8.47136 9.77752 8.92323 9.59001 9.25656 9.25668C9.58988 8.92336 9.77739 8.47142 9.77792 8.00003V7.11002H11.556C12.047 7.11002 12.4439 7.50803 12.4439 8.00003V10.666C12.4442 10.7828 12.4214 10.8985 12.3769 11.0065C12.3324 11.1144 12.267 11.2126 12.1845 11.2952C12.1021 11.3779 12.0041 11.4435 11.8962 11.4883C11.7883 11.533 11.6728 11.556 11.556 11.556H7.99997C7.8831 11.5562 7.76737 11.5332 7.65939 11.4885C7.55141 11.4438 7.45328 11.3783 7.37069 11.2956C7.2881 11.2129 7.22264 11.1147 7.17807 11.0067C7.1335 10.8987 7.11067 10.7829 7.11093 10.666V9.77805Z" fill="#6667AB"/>
</g>
</svg>
