<svg width="27" height="25" viewBox="0 0 27 25" fill="none" xmlns="http://www.w3.org/2000/svg">
<path fill-rule="evenodd" clip-rule="evenodd" d="M26.2938 12.477C26.2938 13.298 25.6099 13.942 24.8339 13.942H23.3739L23.4069 21.249C23.4069 21.373 23.3969 21.496 23.3839 21.619V22.353C23.384 22.5927 23.3369 22.8301 23.2452 23.0515C23.1536 23.273 23.0191 23.4743 22.8496 23.6438C22.6801 23.8133 22.4789 23.9477 22.2574 24.0393C22.036 24.131 21.7985 24.1781 21.5588 24.178H20.8289C20.7789 24.178 20.7288 24.178 20.6788 24.174C20.6148 24.178 20.5509 24.178 20.4869 24.178H17.9099C17.6702 24.1781 17.4328 24.131 17.2113 24.0393C16.9898 23.9477 16.7886 23.8133 16.6191 23.6438C16.4496 23.4743 16.3152 23.273 16.2235 23.0515C16.1318 22.8301 16.0847 22.5927 16.0848 22.353V18.34C16.0848 17.533 15.4329 16.88 14.6249 16.88H11.7048C10.8978 16.88 10.2458 17.533 10.2458 18.34V22.354C10.246 22.5937 10.1988 22.8311 10.1072 23.0525C10.0155 23.274 9.88116 23.4753 9.71167 23.6448C9.54218 23.8143 9.34086 23.9487 9.11938 24.0403C8.89791 24.132 8.6606 24.1791 8.4209 24.179H5.87085C5.80285 24.179 5.73489 24.175 5.66589 24.17C5.61139 24.1756 5.55661 24.1789 5.50183 24.18H4.77185C4.53207 24.1801 4.29466 24.133 4.07312 24.0413C3.85158 23.9495 3.65022 23.815 3.48071 23.6454C3.31121 23.4758 3.17681 23.2745 3.08521 23.0529C2.9936 22.8313 2.94664 22.5938 2.9469 22.354V17.245C2.9469 17.205 2.9469 17.159 2.9519 17.118V13.943H1.48792C0.665915 13.943 0.027832 13.303 0.027832 12.478C0.027832 12.068 0.164887 11.703 0.483887 11.383L12.1799 1.188C12.4999 0.867998 12.8648 0.822998 13.1838 0.822998C13.5038 0.822998 13.8678 0.913998 14.1418 1.143L25.7919 11.383C26.1569 11.703 26.3398 12.068 26.2938 12.478V12.477Z" fill="white"/>
</svg>
