<?xml version="1.0" encoding="UTF-8" standalone="no"?>
<svg
   width="5.9562683"
   height="10.418223"
   viewBox="0 0 5.9562683 10.418223"
   fill="none"
   version="1.1"
   id="svg4"
   xmlns="http://www.w3.org/2000/svg"
   xmlns:svg="http://www.w3.org/2000/svg">
  <defs
     id="defs8" />
  <path
     fill-rule="evenodd"
     clip-rule="evenodd"
     d="m 4.1599991,5.2071721 -3.94089997,-3.938 c -0.0695,-0.06888 -0.1246,-0.15082 -0.1622,-0.2411 -0.0376,-0.090273 -0.0569000040234,-0.18710605 -0.0569000040234,-0.28490005 0,-0.097795 0.0193000040234,-0.19461998 0.0569000040234,-0.28489698 0.0376,-0.090278 0.0927,-0.172215 0.1622,-0.241097 C 0.35919913,0.07806947 0.54859913,0 0.74599913,0 c 0.1975,0 0.38689997,0.0780695 0.52709997,0.21717807 l 4.466,4.46299403 c 0.1352,0.13541 0.2129,0.31777 0.217,0.50909 0.0041,0.19132 -0.0658,0.37684 -0.1951,0.51791 l -4.4849,4.4939499 c -0.0693,0.0691 -0.1515,0.1238 -0.2419,0.161 -0.0905,0.0373 -0.18729997,0.0563 -0.28509997,0.0561 -0.147,-10e-5 -0.2907,-0.0437 -0.413,-0.1253 -0.1222,-0.0816 -0.2176,-0.1976 -0.274,-0.3334003 -0.0563,-0.13577 -0.0713,-0.28519 -0.0428,-0.4294096 0.0285,-0.14422 0.099,-0.27677 0.2027,-0.38093 z"
     fill="#9daabf"
     id="path2" />
</svg>
