<svg width="20" height="20" viewBox="0 0 20 20" fill="none" xmlns="http://www.w3.org/2000/svg">
<mask id="mask0_17_108" style="mask-type:luminance" maskUnits="userSpaceOnUse" x="0" y="0" width="20" height="20">
<path d="M0 0H20V20H0V0Z" fill="white"/>
</mask>
<g mask="url(#mask0_17_108)">
<path fill-rule="evenodd" clip-rule="evenodd" d="M2.81287 6.26494C3.0394 6.26487 3.26376 6.22019 3.47302 6.13344C3.68228 6.04669 3.87234 5.91957 4.03247 5.75934C4.19261 5.59911 4.31962 5.40891 4.40625 5.1996C4.49288 4.99029 4.53742 4.76597 4.53735 4.53944C4.53729 4.31291 4.49263 4.08861 4.40588 3.87935C4.31913 3.67009 4.19197 3.47996 4.03174 3.31982C3.87151 3.15969 3.68136 3.03269 3.47205 2.94606C3.26273 2.85943 3.03842 2.81488 2.81189 2.81494C2.35439 2.81494 1.91566 2.99667 1.59216 3.32018C1.26866 3.64368 1.08691 4.08243 1.08691 4.53993C1.08691 4.99743 1.26866 5.4362 1.59216 5.7597C1.91566 6.0832 2.35537 6.26494 2.81287 6.26494ZM7.41284 3.39095C7.10784 3.39095 6.8154 3.5121 6.59973 3.72777C6.38406 3.94343 6.26282 4.23594 6.26282 4.54094C6.26282 4.84594 6.38406 5.13844 6.59973 5.35411C6.8154 5.56978 7.10784 5.69093 7.41284 5.69093H17.7628C18.0678 5.69093 18.3604 5.56978 18.576 5.35411C18.7917 5.13844 18.9128 4.84594 18.9128 4.54094C18.9128 4.23594 18.7917 3.94343 18.576 3.72777C18.3604 3.5121 18.0678 3.39095 17.7628 3.39095H7.41284ZM7.41284 9.14095C7.10784 9.14095 6.8154 9.2621 6.59973 9.47777C6.38406 9.69343 6.26282 9.98594 6.26282 10.2909C6.26282 10.5959 6.38406 10.8884 6.59973 11.1041C6.8154 11.3198 7.10784 11.4409 7.41284 11.4409H17.7628C18.0678 11.4409 18.3604 11.3198 18.576 11.1041C18.7917 10.8884 18.9128 10.5959 18.9128 10.2909C18.9128 9.98594 18.7917 9.69343 18.576 9.47777C18.3604 9.2621 18.0678 9.14095 17.7628 9.14095H7.41284ZM7.41284 14.8909C7.10784 14.8909 6.8154 15.0121 6.59973 15.2278C6.38406 15.4434 6.26282 15.7359 6.26282 16.0409C6.26282 16.3459 6.38406 16.6384 6.59973 16.8541C6.8154 17.0698 7.10784 17.1909 7.41284 17.1909H17.7628C18.0678 17.1909 18.3604 17.0698 18.576 16.8541C18.7917 16.6384 18.9128 16.3459 18.9128 16.0409C18.9128 15.7359 18.7917 15.4434 18.576 15.2278C18.3604 15.0121 18.0678 14.8909 17.7628 14.8909H7.41284ZM2.81287 17.7649C3.0394 17.7649 3.26376 17.7202 3.47302 17.6334C3.68228 17.5467 3.87234 17.4196 4.03247 17.2593C4.19261 17.0991 4.31962 16.9089 4.40625 16.6996C4.49288 16.4903 4.53742 16.266 4.53735 16.0394C4.53729 15.8129 4.49263 15.5886 4.40588 15.3793C4.31913 15.1701 4.19197 14.98 4.03174 14.8198C3.87151 14.6597 3.68136 14.5327 3.47205 14.4461C3.26273 14.3594 3.03842 14.3149 2.81189 14.3149C2.35439 14.3149 1.91566 14.4967 1.59216 14.8202C1.26866 15.1437 1.08691 15.5824 1.08691 16.0399C1.08691 16.4974 1.26866 16.9362 1.59216 17.2597C1.91566 17.5832 2.35537 17.7649 2.81287 17.7649ZM4.53784 10.2899C4.53778 10.0633 4.49315 9.83898 4.40637 9.62965C4.3196 9.42033 4.19238 9.23016 4.0321 9.06998C3.87183 8.9098 3.68166 8.78274 3.47229 8.69609C3.26292 8.60944 3.03849 8.56488 2.81189 8.56494C2.58529 8.56501 2.36093 8.6097 2.15161 8.69647C1.94229 8.78325 1.7521 8.9104 1.59192 9.07068C1.43174 9.23095 1.30467 9.42121 1.21802 9.63058C1.13136 9.83996 1.08685 10.0643 1.08691 10.2909C1.08691 10.7484 1.26866 11.1872 1.59216 11.5107C1.91566 11.8342 2.35439 12.0159 2.81189 12.0159C3.26939 12.0159 3.70812 11.8342 4.03162 11.5107C4.35512 11.1872 4.53687 10.7484 4.53687 10.2909L4.53784 10.2899Z" fill="#299CDB"/>
</g>
</svg>
