<svg width="16" height="16" viewBox="0 0 16 16" fill="none" xmlns="http://www.w3.org/2000/svg">
<mask id="mask0_17_559" style="mask-type:luminance" maskUnits="userSpaceOnUse" x="0" y="0" width="16" height="16">
<path d="M0 0H16V16H0V0Z" fill="white"/>
</mask>
<g mask="url(#mask0_17_559)">
<path fill-rule="evenodd" clip-rule="evenodd" d="M15.9999 7.5C15.9999 11.09 12.4189 14 7.99988 14C6.84088 14 5.74093 13.8 4.74793 13.44C4.21746 13.8175 3.64862 14.1379 3.05091 14.396C2.30091 14.721 1.39786 14.999 0.500857 14.999C0.401871 14.9994 0.305018 14.9704 0.222536 14.9156C0.140055 14.8609 0.0757246 14.7829 0.0375998 14.6916C-0.00052496 14.6002 -0.0106809 14.4996 0.00842504 14.4025C0.027531 14.3054 0.0750147 14.2161 0.1449 14.146L0.154909 14.136C0.222497 14.0646 0.287185 13.9905 0.348879 13.914C0.475879 13.759 0.647878 13.527 0.822878 13.24C1.13488 12.721 1.43282 12.04 1.49182 11.274C0.553823 10.212 0.00085668 8.909 0.00085668 7.5C0.00085668 3.91 3.58186 1 8.00086 1C12.4189 1 15.9999 3.91 15.9999 7.5Z" fill="#007AD4"/>
</g>
</svg>
