<svg width="19" height="19" viewBox="0 0 19 19" fill="none" xmlns="http://www.w3.org/2000/svg">
<mask id="mask0_17_56" style="mask-type:luminance" maskUnits="userSpaceOnUse" x="0" y="0" width="19" height="19">
<path d="M0 0H19V19H0V0Z" fill="white"/>
</mask>
<g mask="url(#mask0_17_56)">
<path fill-rule="evenodd" clip-rule="evenodd" d="M10.45 6.03303C10.45 6.53206 10.3517 7.02619 10.1607 7.48723C9.96977 7.94827 9.68987 8.36718 9.33701 8.72004C8.98414 9.0729 8.56523 9.35281 8.1042 9.54377C7.64316 9.73474 7.14902 9.83303 6.65 9.83303C6.15098 9.83303 5.65684 9.73474 5.1958 9.54377C4.73477 9.35281 4.31586 9.0729 3.96299 8.72004C3.61013 8.36718 3.33023 7.94827 3.13926 7.48723C2.94829 7.02619 2.85 6.53206 2.85 6.03303C2.85 5.02521 3.25036 4.05866 3.96299 3.34603C4.67563 2.63339 5.64218 2.23303 6.65 2.23303C7.65782 2.23303 8.62437 2.63339 9.33701 3.34603C10.0496 4.05866 10.45 5.02521 10.45 6.03303ZM9.45088e-08 16.551C-0.000131272 15.8559 0.136687 15.1676 0.402638 14.5253C0.66859 13.8831 1.05846 13.2996 1.54999 12.808C2.04152 12.3165 2.62507 11.9266 3.2673 11.6607C3.90954 11.3947 4.59788 11.2579 5.293 11.258H8.007C8.70212 11.2579 9.39046 11.3947 10.0327 11.6607C10.6749 11.9266 11.2585 12.3165 11.75 12.808C12.2415 13.2996 12.6314 13.8831 12.8974 14.5253C13.1633 15.1676 13.3001 15.8559 13.3 16.551C13.3 16.785 13.2071 17.0093 13.0417 17.1747C12.8763 17.3401 12.6519 17.433 12.418 17.433H0.882C0.648079 17.433 0.423739 17.3401 0.258332 17.1747C0.0929248 17.0093 9.45088e-08 16.785 9.45088e-08 16.551ZM18.089 17.433H13.995C14.155 17.153 14.25 16.83 14.25 16.483V16.245C14.25 14.443 13.445 12.825 12.178 11.739C12.249 11.736 12.318 11.733 12.388 11.733H14.211C14.8399 11.7329 15.4627 11.8567 16.0438 12.0973C16.6249 12.3379 17.1529 12.6907 17.5976 13.1354C18.0424 13.5801 18.3951 14.1081 18.6357 14.6892C18.8764 15.2703 19.0001 15.8931 19 16.522C19 17.026 18.59 17.433 18.089 17.433ZM12.825 9.83303C11.905 9.83303 11.073 9.45903 10.471 8.85603C11.056 8.06603 11.4 7.09003 11.4 6.03303C11.4 5.23703 11.204 4.48603 10.857 3.82703C11.3522 3.46247 11.9389 3.24248 12.5517 3.19154C13.1645 3.14059 13.7795 3.2607 14.3281 3.53848C14.8767 3.81626 15.3375 4.24082 15.6591 4.76492C15.9808 5.28902 16.1507 5.8921 16.15 6.50703C16.1504 6.94384 16.0647 7.37643 15.8977 7.78007C15.7308 8.18371 15.4859 8.55048 15.1771 8.8594C14.8683 9.16831 14.5016 9.41331 14.098 9.58037C13.6944 9.74744 13.2618 9.8333 12.825 9.83303Z" fill="#D9D9FB"/>
</g>
</svg>
