<svg width="19" height="19" viewBox="0 0 19 19" fill="none" xmlns="http://www.w3.org/2000/svg">
<path fill-rule="evenodd" clip-rule="evenodd" d="M2.96924 -0.266968C2.33951 -0.266438 1.73573 -0.0160456 1.29044 0.429239C0.84516 0.874523 0.594768 1.47831 0.594238 2.10803V16.358C0.594768 16.9878 0.84516 17.5915 1.29044 18.0368C1.73573 18.4821 2.33951 18.7325 2.96924 18.733H13.6562C14.286 18.7325 14.8897 18.4821 15.335 18.0368C15.7803 17.5915 16.0307 16.9878 16.0312 16.358V2.10803C16.0307 1.47831 15.7803 0.874523 15.335 0.429239C14.8897 -0.0160456 14.286 -0.266438 13.6562 -0.266968L2.96924 -0.266968ZM7.12524 10.42H9.50024C9.89025 10.4199 10.2765 10.4966 10.6368 10.6459C10.9972 10.7951 11.3245 11.0139 11.6003 11.2897C11.876 11.5655 12.0947 11.893 12.2438 12.2534C12.3929 12.6138 12.4695 13 12.4692 13.39C12.4687 13.5473 12.4059 13.698 12.2946 13.8091C12.1833 13.9202 12.0325 13.9828 11.8752 13.983H4.75024C4.59278 13.9828 4.44185 13.9201 4.33051 13.8088C4.21917 13.6974 4.1565 13.5465 4.15624 13.389C4.15611 12.9991 4.23281 12.613 4.38197 12.2527C4.53113 11.8924 4.74982 11.5651 5.02555 11.2893C5.30127 11.0136 5.62862 10.7949 5.9889 10.6458C6.34917 10.4966 6.73531 10.4199 7.12524 10.42ZM10.6882 6.85803C10.6877 7.48776 10.4373 8.09154 9.99203 8.53683C9.54675 8.98211 8.94296 9.2325 8.31324 9.23303C7.68334 9.23277 7.0793 8.98249 6.6338 8.53718C6.1883 8.09187 5.93777 7.48793 5.93724 6.85803C5.93777 6.22813 6.1883 5.6242 6.6338 5.17889C7.0793 4.73357 7.68334 4.4833 8.31324 4.48303C8.94296 4.48356 9.54675 4.73395 9.99203 5.17924C10.4373 5.62452 10.6877 6.22831 10.6882 6.85803ZM18.4062 2.70203C18.406 2.54475 18.3434 2.39397 18.2323 2.28266C18.1212 2.17134 17.9705 2.10856 17.8132 2.10803C17.6558 2.1083 17.5048 2.17096 17.3935 2.2823C17.2822 2.39364 17.2195 2.54457 17.2192 2.70203V5.07703C17.2192 5.40303 17.4862 5.67003 17.8132 5.67003C17.9703 5.6695 18.1209 5.60686 18.232 5.49576C18.3431 5.38467 18.4057 5.23414 18.4062 5.07703V2.70203ZM17.8132 6.85803C17.6558 6.8583 17.5048 6.92096 17.3935 7.0323C17.2822 7.14364 17.2195 7.29457 17.2192 7.45203V9.82703C17.2192 10.153 17.4862 10.42 17.8132 10.42C17.9703 10.4195 18.1209 10.3569 18.232 10.2458C18.3431 10.1347 18.4057 9.98414 18.4062 9.82703V7.45203C18.406 7.29475 18.3434 7.14397 18.2323 7.03265C18.1212 6.92134 17.9705 6.85856 17.8132 6.85803ZM18.4062 12.202C18.406 12.0447 18.3434 11.894 18.2323 11.7827C18.1212 11.6713 17.9705 11.6086 17.8132 11.608C17.6558 11.6083 17.5048 11.671 17.3935 11.7823C17.2822 11.8936 17.2195 12.0446 17.2192 12.202V14.577C17.2192 14.903 17.4862 15.17 17.8132 15.17C17.9703 15.1695 18.1209 15.1069 18.232 14.9958C18.3431 14.8847 18.4057 14.7341 18.4062 14.577V12.202Z" fill="white"/>
</svg>
