<svg width="22" height="22" viewBox="0 0 22 22" fill="none" xmlns="http://www.w3.org/2000/svg">
<mask id="mask0_17_165" style="mask-type:luminance" maskUnits="userSpaceOnUse" x="0" y="0" width="22" height="22">
<path d="M0 0H22V22H0V0Z" fill="white"/>
</mask>
<g mask="url(#mask0_17_165)">
<path fill-rule="evenodd" clip-rule="evenodd" d="M13.548 18.54V15.562C13.548 14.498 12.431 13.807 11.528 14.285C10.889 14.605 10.091 14.339 9.71899 13.754C8.92099 12.424 8.86899 9.60498 9.71899 8.22198C10.039 7.58398 10.889 7.37201 11.527 7.69101C12.432 8.16901 13.548 7.478 13.548 6.414V3.436C13.495 2.638 12.8569 2 12.1119 2H10.092C8.01698 2.053 6.31494 5.98901 6.31494 10.988C6.31494 15.988 7.96394 19.976 10.0909 19.976H12.1119C12.9099 19.923 13.548 19.285 13.548 18.54Z" fill="#299CDB"/>
</g>
</svg>
