<svg width="16" height="16" viewBox="0 0 16 16" fill="none" xmlns="http://www.w3.org/2000/svg">
<path fill-rule="evenodd" clip-rule="evenodd" d="M15.78 14.45L12.551 11.2C13.451 10.01 13.9326 8.55599 13.921 7.06403C13.921 3.22403 10.887 0.171021 7.07104 0.171021C3.25405 0.171021 0.219971 3.22403 0.219971 7.06403C0.219971 10.904 3.25395 13.958 7.06995 13.958C8.55523 13.9685 10.0017 13.4832 11.1801 12.579L14.41 15.829L15.78 14.45ZM2.177 7.06403C2.177 4.30703 4.32995 2.14002 7.06995 2.14002C9.80995 2.14002 11.964 4.30703 11.964 7.06403C11.964 9.82203 9.81095 11.988 7.06995 11.988C4.32995 11.988 2.177 9.82203 2.177 7.06403Z" fill="#299CDB"/>
</svg>
