<svg width="20" height="20" viewBox="0 0 20 20" fill="none" xmlns="http://www.w3.org/2000/svg">
<mask id="mask0_17_101" style="mask-type:luminance" maskUnits="userSpaceOnUse" x="0" y="0" width="20" height="20">
<path d="M0 0H20V20H0V0Z" fill="white"/>
</mask>
<g mask="url(#mask0_17_101)">
<path fill-rule="evenodd" clip-rule="evenodd" d="M7.70996 1.79199H3.20703C2.42703 1.79199 1.79199 2.42599 1.79199 3.20699V7.70898C1.79199 8.48898 2.42603 9.12398 3.20703 9.12398H7.70898C8.48898 9.12398 9.12402 8.48898 9.12402 7.70898V3.20699C9.12402 2.42699 8.48996 1.79199 7.70996 1.79199Z" fill="white"/>
<path fill-rule="evenodd" clip-rule="evenodd" d="M7.70996 10.876H3.20703C2.42703 10.876 1.79199 11.511 1.79199 12.291V16.793C1.79199 17.573 2.42603 18.208 3.20703 18.208H7.70898C8.48898 18.208 9.12402 17.574 9.12402 16.793V12.291C9.12402 11.511 8.48996 10.876 7.70996 10.876Z" fill="white"/>
<path fill-rule="evenodd" clip-rule="evenodd" d="M16.793 1.79199H12.291C11.511 1.79199 10.876 2.42599 10.876 3.20699V7.70898C10.876 8.48898 11.511 9.12398 12.291 9.12398H16.793C17.573 9.12398 18.208 8.48898 18.208 7.70898V3.20699C18.208 2.42699 17.574 1.79199 16.793 1.79199Z" fill="white"/>
<path fill-rule="evenodd" clip-rule="evenodd" d="M16.793 10.876H12.291C11.511 10.876 10.876 11.511 10.876 12.291V16.793C10.876 17.573 11.511 18.208 12.291 18.208H16.793C17.573 18.208 18.208 17.574 18.208 16.793V12.291C18.208 11.511 17.574 10.876 16.793 10.876Z" fill="white"/>
</g>
</svg>
